<mxfile host="65bd71144e">
    <diagram name="ページ1" id="G17WUqOazoQBEGGekeRX">
        <mxGraphModel dx="1777" dy="1110" grid="0" gridSize="10" guides="1" tooltips="1" connect="1" arrows="1" fold="1" page="0" pageScale="1" pageWidth="827" pageHeight="1169" math="0" shadow="0">
            <root>
                <mxCell id="0"/>
                <mxCell id="1" parent="0"/>
                <mxCell id="VNciA9k0ntiLhubQ5iMN-1" value="AWS Cloud" style="points=[[0,0],[0.25,0],[0.5,0],[0.75,0],[1,0],[1,0.25],[1,0.5],[1,0.75],[1,1],[0.75,1],[0.5,1],[0.25,1],[0,1],[0,0.75],[0,0.5],[0,0.25]];outlineConnect=0;gradientColor=none;html=1;whiteSpace=wrap;fontSize=12;fontStyle=0;container=1;pointerEvents=0;collapsible=0;recursiveResize=0;shape=mxgraph.aws4.group;grIcon=mxgraph.aws4.group_aws_cloud_alt;strokeColor=#232F3E;fillColor=none;verticalAlign=top;align=left;spacingLeft=30;fontColor=#232F3E;dashed=0;" parent="1" vertex="1">
                    <mxGeometry x="-477" y="92" width="523" height="616" as="geometry"/>
                </mxCell>
                <mxCell id="VNciA9k0ntiLhubQ5iMN-31" value="VPC" style="points=[[0,0],[0.25,0],[0.5,0],[0.75,0],[1,0],[1,0.25],[1,0.5],[1,0.75],[1,1],[0.75,1],[0.5,1],[0.25,1],[0,1],[0,0.75],[0,0.5],[0,0.25]];outlineConnect=0;gradientColor=none;html=1;whiteSpace=wrap;fontSize=12;fontStyle=0;container=1;pointerEvents=0;collapsible=0;recursiveResize=0;shape=mxgraph.aws4.group;grIcon=mxgraph.aws4.group_vpc2;strokeColor=#8C4FFF;fillColor=none;verticalAlign=top;align=left;spacingLeft=30;fontColor=#AAB7B8;dashed=0;" parent="VNciA9k0ntiLhubQ5iMN-1" vertex="1">
                    <mxGeometry x="56" y="55" width="396" height="481" as="geometry"/>
                </mxCell>
                <mxCell id="VNciA9k0ntiLhubQ5iMN-32" value="Private subnet" style="points=[[0,0],[0.25,0],[0.5,0],[0.75,0],[1,0],[1,0.25],[1,0.5],[1,0.75],[1,1],[0.75,1],[0.5,1],[0.25,1],[0,1],[0,0.75],[0,0.5],[0,0.25]];outlineConnect=0;gradientColor=none;html=1;whiteSpace=wrap;fontSize=12;fontStyle=0;container=1;pointerEvents=0;collapsible=0;recursiveResize=0;shape=mxgraph.aws4.group;grIcon=mxgraph.aws4.group_security_group;grStroke=0;strokeColor=#00A4A6;fillColor=#E6F6F7;verticalAlign=top;align=left;spacingLeft=30;fontColor=#147EBA;dashed=0;" parent="VNciA9k0ntiLhubQ5iMN-31" vertex="1">
                    <mxGeometry x="106" y="290" width="163" height="150" as="geometry"/>
                </mxCell>
                <mxCell id="VNciA9k0ntiLhubQ5iMN-37" value="" style="sketch=0;points=[[0,0,0],[0.25,0,0],[0.5,0,0],[0.75,0,0],[1,0,0],[0,1,0],[0.25,1,0],[0.5,1,0],[0.75,1,0],[1,1,0],[0,0.25,0],[0,0.5,0],[0,0.75,0],[1,0.25,0],[1,0.5,0],[1,0.75,0]];outlineConnect=0;fontColor=#232F3E;fillColor=#C925D1;strokeColor=#ffffff;dashed=0;verticalLabelPosition=bottom;verticalAlign=top;align=center;html=1;fontSize=12;fontStyle=0;aspect=fixed;shape=mxgraph.aws4.resourceIcon;resIcon=mxgraph.aws4.rds;" parent="VNciA9k0ntiLhubQ5iMN-32" vertex="1">
                    <mxGeometry x="52" y="57" width="56" height="56" as="geometry"/>
                </mxCell>
                <mxCell id="VNciA9k0ntiLhubQ5iMN-33" value="Public subnet" style="points=[[0,0],[0.25,0],[0.5,0],[0.75,0],[1,0],[1,0.25],[1,0.5],[1,0.75],[1,1],[0.75,1],[0.5,1],[0.25,1],[0,1],[0,0.75],[0,0.5],[0,0.25]];outlineConnect=0;gradientColor=none;html=1;whiteSpace=wrap;fontSize=12;fontStyle=0;container=1;pointerEvents=0;collapsible=0;recursiveResize=0;shape=mxgraph.aws4.group;grIcon=mxgraph.aws4.group_security_group;grStroke=0;strokeColor=#7AA116;fillColor=#F2F6E8;verticalAlign=top;align=left;spacingLeft=30;fontColor=#248814;dashed=0;" parent="VNciA9k0ntiLhubQ5iMN-31" vertex="1">
                    <mxGeometry x="106" y="125" width="163" height="136" as="geometry"/>
                </mxCell>
                <mxCell id="8" value="Region" style="points=[[0,0],[0.25,0],[0.5,0],[0.75,0],[1,0],[1,0.25],[1,0.5],[1,0.75],[1,1],[0.75,1],[0.5,1],[0.25,1],[0,1],[0,0.75],[0,0.5],[0,0.25]];outlineConnect=0;gradientColor=none;html=1;whiteSpace=wrap;fontSize=12;fontStyle=0;container=1;pointerEvents=0;collapsible=0;recursiveResize=0;shape=mxgraph.aws4.group;grIcon=mxgraph.aws4.group_region;strokeColor=#147EBA;fillColor=none;verticalAlign=top;align=left;spacingLeft=30;fontColor=#147EBA;dashed=1;" parent="VNciA9k0ntiLhubQ5iMN-1" vertex="1">
                    <mxGeometry x="32" y="28" width="459" height="546" as="geometry"/>
                </mxCell>
                <mxCell id="VNciA9k0ntiLhubQ5iMN-39" value="" style="sketch=0;outlineConnect=0;fontColor=#232F3E;gradientColor=none;fillColor=#8C4FFF;strokeColor=none;dashed=0;verticalLabelPosition=bottom;verticalAlign=top;align=center;html=1;fontSize=12;fontStyle=0;aspect=fixed;pointerEvents=1;shape=mxgraph.aws4.application_load_balancer;" parent="8" vertex="1">
                    <mxGeometry x="186" y="75" width="48" height="48" as="geometry"/>
                </mxCell>
                <mxCell id="16" value="Application&lt;br&gt;Load Balancer" style="text;html=1;align=center;verticalAlign=middle;resizable=0;points=[];autosize=1;strokeColor=none;fillColor=none;" parent="8" vertex="1">
                    <mxGeometry x="231.25" y="91" width="95" height="41" as="geometry"/>
                </mxCell>
                <mxCell id="VNciA9k0ntiLhubQ5iMN-38" value="" style="sketch=0;points=[[0,0,0],[0.25,0,0],[0.5,0,0],[0.75,0,0],[1,0,0],[0,1,0],[0.25,1,0],[0.5,1,0],[0.75,1,0],[1,1,0],[0,0.25,0],[0,0.5,0],[0,0.75,0],[1,0.25,0],[1,0.5,0],[1,0.75,0]];outlineConnect=0;fontColor=#232F3E;fillColor=#ED7100;strokeColor=#ffffff;dashed=0;verticalLabelPosition=bottom;verticalAlign=top;align=center;html=1;fontSize=12;fontStyle=0;aspect=fixed;shape=mxgraph.aws4.resourceIcon;resIcon=mxgraph.aws4.ec2;" parent="8" vertex="1">
                    <mxGeometry x="183" y="193" width="54" height="54" as="geometry"/>
                </mxCell>
                <mxCell id="13" style="edgeStyle=none;html=1;entryX=0.5;entryY=0;entryDx=0;entryDy=0;entryPerimeter=0;" parent="8" source="VNciA9k0ntiLhubQ5iMN-39" target="VNciA9k0ntiLhubQ5iMN-38" edge="1">
                    <mxGeometry relative="1" as="geometry"/>
                </mxCell>
                <mxCell id="17" value="&lt;font style=&quot;&quot; color=&quot;#000000&quot;&gt;EC2&lt;/font&gt;" style="text;html=1;align=center;verticalAlign=middle;resizable=0;points=[];autosize=1;strokeColor=none;fillColor=none;" parent="8" vertex="1">
                    <mxGeometry x="237" y="229" width="41" height="26" as="geometry"/>
                </mxCell>
                <mxCell id="18" value="&lt;font style=&quot;&quot; color=&quot;#000000&quot;&gt;EC2&lt;/font&gt;" style="text;html=1;align=center;verticalAlign=middle;resizable=0;points=[];autosize=1;strokeColor=none;fillColor=none;" parent="8" vertex="1">
                    <mxGeometry x="237" y="410" width="41" height="26" as="geometry"/>
                </mxCell>
                <mxCell id="19" value="Internet Gateway" style="text;html=1;align=center;verticalAlign=middle;resizable=0;points=[];autosize=1;strokeColor=none;fillColor=none;" parent="8" vertex="1">
                    <mxGeometry x="230" y="31" width="109" height="26" as="geometry"/>
                </mxCell>
                <mxCell id="29" value="&lt;span style=&quot;color: rgb(224, 220, 215); font-family: &amp;quot;Amazon Ember&amp;quot;, &amp;quot;Helvetica Neue&amp;quot;, Roboto, Arial, sans-serif; font-size: 14px; text-align: start;&quot;&gt;10.0.0.0/16&lt;/span&gt;" style="text;html=1;align=center;verticalAlign=middle;resizable=0;points=[];autosize=1;strokeColor=none;fillColor=none;" vertex="1" parent="8">
                    <mxGeometry x="326.25" y="477" width="90" height="29" as="geometry"/>
                </mxCell>
                <mxCell id="30" value="&lt;span style=&quot;font-family: &amp;quot;Amazon Ember&amp;quot;, &amp;quot;Helvetica Neue&amp;quot;, Roboto, Arial, sans-serif; font-size: 14px; text-align: start;&quot;&gt;&lt;font color=&quot;#000000&quot;&gt;10.0.20.0/24&lt;/font&gt;&lt;/span&gt;" style="text;html=1;align=center;verticalAlign=middle;resizable=0;points=[];autosize=1;strokeColor=none;fillColor=none;" vertex="1" parent="8">
                    <mxGeometry x="199" y="441" width="98" height="29" as="geometry"/>
                </mxCell>
                <mxCell id="32" value="&lt;font color=&quot;#000000&quot;&gt;&lt;span style=&quot;font-family: &amp;quot;Amazon Ember&amp;quot;, &amp;quot;Helvetica Neue&amp;quot;, Roboto, Arial, sans-serif; font-size: 14px; text-align: start;&quot;&gt;10.0.0.0&lt;/span&gt;&lt;span style=&quot;font-family: &amp;quot;Amazon Ember&amp;quot;, &amp;quot;Helvetica Neue&amp;quot;, Roboto, Arial, sans-serif; font-size: 14px; text-align: start;&quot;&gt;/24&lt;/span&gt;&lt;/font&gt;" style="text;html=1;align=center;verticalAlign=middle;resizable=0;points=[];autosize=1;strokeColor=none;fillColor=none;" vertex="1" parent="8">
                    <mxGeometry x="203" y="258.5" width="90" height="29" as="geometry"/>
                </mxCell>
                <mxCell id="VNciA9k0ntiLhubQ5iMN-35" value="" style="sketch=0;outlineConnect=0;fontColor=#232F3E;gradientColor=none;fillColor=#8C4FFF;strokeColor=none;dashed=0;verticalLabelPosition=bottom;verticalAlign=top;align=center;html=1;fontSize=12;fontStyle=0;aspect=fixed;pointerEvents=1;shape=mxgraph.aws4.internet_gateway;" parent="8" vertex="1">
                    <mxGeometry x="188.5" y="14" width="41.5" height="41.5" as="geometry"/>
                </mxCell>
                <mxCell id="15" style="edgeStyle=none;html=1;" parent="8" source="VNciA9k0ntiLhubQ5iMN-35" target="VNciA9k0ntiLhubQ5iMN-39" edge="1">
                    <mxGeometry relative="1" as="geometry"/>
                </mxCell>
                <mxCell id="14" style="edgeStyle=none;html=1;entryX=0.5;entryY=0;entryDx=0;entryDy=0;entryPerimeter=0;" parent="VNciA9k0ntiLhubQ5iMN-1" source="VNciA9k0ntiLhubQ5iMN-38" target="VNciA9k0ntiLhubQ5iMN-37" edge="1">
                    <mxGeometry relative="1" as="geometry"/>
                </mxCell>
                <mxCell id="11" style="edgeStyle=none;html=1;" parent="1" source="VNciA9k0ntiLhubQ5iMN-28" target="VNciA9k0ntiLhubQ5iMN-35" edge="1">
                    <mxGeometry relative="1" as="geometry"/>
                </mxCell>
                <mxCell id="VNciA9k0ntiLhubQ5iMN-28" value="" style="sketch=0;points=[[0,0,0],[0.25,0,0],[0.5,0,0],[0.75,0,0],[1,0,0],[0,1,0],[0.25,1,0],[0.5,1,0],[0.75,1,0],[1,1,0],[0,0.25,0],[0,0.5,0],[0,0.75,0],[1,0.25,0],[1,0.5,0],[1,0.75,0]];outlineConnect=0;fontColor=#232F3E;fillColor=#8C4FFF;strokeColor=#ffffff;dashed=0;verticalLabelPosition=bottom;verticalAlign=top;align=center;html=1;fontSize=12;fontStyle=0;aspect=fixed;shape=mxgraph.aws4.resourceIcon;resIcon=mxgraph.aws4.route_53;" parent="1" vertex="1">
                    <mxGeometry x="-263.75" y="-14" width="56" height="56" as="geometry"/>
                </mxCell>
                <mxCell id="20" value="Route 53" style="text;html=1;align=center;verticalAlign=middle;resizable=0;points=[];autosize=1;strokeColor=none;fillColor=none;" parent="1" vertex="1">
                    <mxGeometry x="-235" y="47" width="67" height="26" as="geometry"/>
                </mxCell>
                <mxCell id="35" style="edgeStyle=none;html=1;entryX=1;entryY=0.5;entryDx=0;entryDy=0;fontColor=#000000;" edge="1" parent="1" source="21" target="25">
                    <mxGeometry relative="1" as="geometry"/>
                </mxCell>
                <mxCell id="21" value="" style="sketch=0;outlineConnect=0;fontColor=#232F3E;gradientColor=none;fillColor=#232F3D;strokeColor=none;dashed=0;verticalLabelPosition=bottom;verticalAlign=top;align=center;html=1;fontSize=12;fontStyle=0;aspect=fixed;pointerEvents=1;shape=mxgraph.aws4.client;labelBackgroundColor=none;" parent="1" vertex="1">
                    <mxGeometry x="271" y="-12.5" width="52.34" height="51" as="geometry"/>
                </mxCell>
                <mxCell id="23" value="Client" style="text;html=1;align=center;verticalAlign=middle;resizable=0;points=[];autosize=1;fillColor=none;" parent="1" vertex="1">
                    <mxGeometry x="274.34000000000003" y="41" width="49" height="26" as="geometry"/>
                </mxCell>
                <mxCell id="34" style="edgeStyle=none;html=1;fontColor=#000000;" edge="1" parent="1" source="25">
                    <mxGeometry relative="1" as="geometry">
                        <mxPoint x="-201" y="13" as="targetPoint"/>
                    </mxGeometry>
                </mxCell>
                <mxCell id="25" value="Versel" style="rounded=1;whiteSpace=wrap;html=1;" vertex="1" parent="1">
                    <mxGeometry x="-69" y="-14" width="97" height="54" as="geometry"/>
                </mxCell>
                <mxCell id="27" value="https://tk-22.net" style="text;html=1;align=center;verticalAlign=middle;resizable=0;points=[];autosize=1;strokeColor=none;fillColor=none;" vertex="1" parent="1">
                    <mxGeometry x="-195" y="-22" width="101" height="26" as="geometry"/>
                </mxCell>
                <mxCell id="28" value="https://next-js-rails-api-conduit.vercel.app/" style="text;html=1;align=center;verticalAlign=middle;resizable=0;points=[];autosize=1;strokeColor=none;fillColor=none;" vertex="1" parent="1">
                    <mxGeometry x="34.34" y="-22" width="240" height="26" as="geometry"/>
                </mxCell>
            </root>
        </mxGraphModel>
    </diagram>
</mxfile>
